<svg xmlns="http://www.w3.org/2000/svg" width="125.997" height="55.4" viewBox="0 0 125.997 55.4">
  <g id="Векторный_смарт-объект" data-name="Векторный смарт-объект" transform="translate(-71.63 -69)" opacity="0.5">
    <path id="Color_Overlay" data-name="Color Overlay" d="M177.1,124.4v-1.382h-3.047V124.4h-1.123l-.078-2.422h.059a1.367,1.367,0,0,0,.389-.053.643.643,0,0,0,.32-.239,1.805,1.805,0,0,0,.254-.537,6.218,6.218,0,0,0,.2-.945q.089-.593.149-1.464t.1-2.1h3.491v5.341h.489l-.078,2.422Zm-1.753-5.337q-.043.591-.094,1.033c-.034.294-.072.545-.113.752a3.631,3.631,0,0,1-.139.527,1.718,1.718,0,0,1-.171.359,1.155,1.155,0,0,1-.21.244h1.983v-4.3h-1.172Q175.4,118.473,175.352,119.064Zm-78.071,3.23a3.979,3.979,0,0,1-.635-2.434,4.9,4.9,0,0,1,.2-1.5,2.907,2.907,0,0,1,.556-1.035,2.2,2.2,0,0,1,.83-.6,2.654,2.654,0,0,1,1.019-.2,2.232,2.232,0,0,1,1.895.834,3.98,3.98,0,0,1,.635,2.437,4.919,4.919,0,0,1-.2,1.5,2.9,2.9,0,0,1-.557,1.035,2.194,2.194,0,0,1-.83.6,2.669,2.669,0,0,1-1.018.2A2.226,2.226,0,0,1,97.28,122.294Zm1.343-4.536a1.126,1.126,0,0,0-.4.422,2.189,2.189,0,0,0-.232.687,5.354,5.354,0,0,0-.073.935,3.632,3.632,0,0,0,.305,1.689,1.047,1.047,0,0,0,.994.556,1.151,1.151,0,0,0,.593-.144,1.093,1.093,0,0,0,.4-.422,2.176,2.176,0,0,0,.229-.686,5.361,5.361,0,0,0,.073-.935,3.658,3.658,0,0,0-.3-1.689,1.045,1.045,0,0,0-1-.557A1.139,1.139,0,0,0,98.623,117.758Zm-16.241,5.213a1.245,1.245,0,0,1-.508-.513,2.782,2.782,0,0,1-.291-.9,9.586,9.586,0,0,1-.112-1.326h-.644v2.788H79.747v-6.382h1.079v2.6h.654a6.563,6.563,0,0,1,.171-1.26,2.77,2.77,0,0,1,.344-.84,1.274,1.274,0,0,1,.513-.466,1.552,1.552,0,0,1,.681-.144,1.611,1.611,0,0,1,.85.2,1.359,1.359,0,0,1,.52.607,3.333,3.333,0,0,1,.258,1.011,12.16,12.16,0,0,1,.071,1.407,9.386,9.386,0,0,1-.11,1.552,3.48,3.48,0,0,1-.328,1.045,1.432,1.432,0,0,1-.544.591,1.53,1.53,0,0,1-.766.185A1.637,1.637,0,0,1,82.382,122.971Zm.488-5.315a1.009,1.009,0,0,0-.2.413,3.841,3.841,0,0,0-.113.71q-.034.432-.034,1.023,0,.639.034,1.086a3.882,3.882,0,0,0,.113.725.948.948,0,0,0,.2.4.394.394,0,0,0,.3.124q.352,0,.506-.552a7.015,7.015,0,0,0,.154-1.728c0-.394-.01-.738-.03-1.033a4.21,4.21,0,0,0-.1-.73,1.051,1.051,0,0,0-.2-.432.415.415,0,0,0-.62-.01Zm73.718,5.415a2.752,2.752,0,0,1-.668-.09l.059-1.04a1.475,1.475,0,0,0,.269-.005.538.538,0,0,0,.241-.09.782.782,0,0,0,.215-.227,1.8,1.8,0,0,0,.188-.413,4.683,4.683,0,0,0,.158-.652c.048-.26.091-.575.132-.945s.076-.8.1-1.289.054-1.05.074-1.682h3.481v6.382H159.63V117.7h-1.172q-.043,1.25-.141,2.154a11.632,11.632,0,0,1-.251,1.524,3.855,3.855,0,0,1-.365.984,1.508,1.508,0,0,1-.478.535,1.142,1.142,0,0,1-.593.178Zm33.875-.051v-6.382h2.061a2.862,2.862,0,0,1,1.633.381,1.313,1.313,0,0,1,.545,1.153,1.922,1.922,0,0,1-.057.466,1.476,1.476,0,0,1-.173.418,1.391,1.391,0,0,1-.293.337,1.331,1.331,0,0,1-.415.229,1.486,1.486,0,0,1,.456.154,1.346,1.346,0,0,1,.381.3,1.381,1.381,0,0,1,.259.432,1.554,1.554,0,0,1,.1.556,1.72,1.72,0,0,1-.654,1.468,3.115,3.115,0,0,1-1.89.491Zm1.192-.982h.84a1.59,1.59,0,0,0,.506-.073,1.044,1.044,0,0,0,.364-.2.861.861,0,0,0,.222-.305.943.943,0,0,0,.076-.376.77.77,0,0,0-.311-.65,1.574,1.574,0,0,0-.949-.234h-.747Zm0-2.758h.727a1.5,1.5,0,0,0,.5-.071.885.885,0,0,0,.332-.2.715.715,0,0,0,.185-.285,1.036,1.036,0,0,0,.057-.347.884.884,0,0,0-.059-.328.6.6,0,0,0-.188-.248.936.936,0,0,0-.332-.159,1.885,1.885,0,0,0-.491-.056h-.727Zm-9.577,3.74v-.991h1.407v-4.41h-1.407v-.981h4.033v.981H184.7v4.41h1.406v.991Zm-13.558,0-.352-1.26h-2.227l-.362,1.26h-1.191l1.889-6.382h1.68l1.889,6.382Zm-2.29-2.241H167.9l-.83-2.969Zm-15.067,2.241-1.919-3.086v3.086h-1.22v-6.382h1.22v2.905l1.909-2.905h1.45l-2.167,3.042,2.28,3.34Zm-11.359,0v-6.382h3.842v1.015h-2.622v1.588h2.5v.991h-2.5V122h2.622v1.016Zm-8.727,0v-6.382h1.87a4.07,4.07,0,0,1,1.1.134,2.248,2.248,0,0,1,.8.393,1.667,1.667,0,0,1,.493.637,2.107,2.107,0,0,1,.169.867,2.5,2.5,0,0,1-.166.921,2,2,0,0,1-.493.73,2.247,2.247,0,0,1-.815.478,3.417,3.417,0,0,1-1.133.171h-.61v2.051Zm1.21-3.047h.67a1.648,1.648,0,0,0,.552-.086,1.1,1.1,0,0,0,.4-.247,1.074,1.074,0,0,0,.249-.386,1.411,1.411,0,0,0,.085-.5,1.262,1.262,0,0,0-.081-.462.912.912,0,0,0-.244-.354,1.1,1.1,0,0,0-.412-.224,1.986,1.986,0,0,0-.591-.078h-.63Zm-9.46,3.047v-6.382h3.843v1.015h-2.622v1.588h2.5v.991h-2.5V122h2.622v1.016Zm-5.573,0V117.7h-2.128v5.323h-1.211v-6.382h4.551v6.382Zm-28.618,0v-6.382h1.87a4.07,4.07,0,0,1,1.1.134,2.261,2.261,0,0,1,.8.393,1.685,1.685,0,0,1,.493.637,2.121,2.121,0,0,1,.168.867,2.5,2.5,0,0,1-.166.921,1.987,1.987,0,0,1-.493.73,2.247,2.247,0,0,1-.815.478,3.412,3.412,0,0,1-1.132.171h-.611v2.051Zm1.21-3.047h.67a1.644,1.644,0,0,0,.552-.086,1.1,1.1,0,0,0,.4-.247,1.062,1.062,0,0,0,.249-.386,1.411,1.411,0,0,0,.086-.5,1.262,1.262,0,0,0-.081-.462.912.912,0,0,0-.244-.354,1.1,1.1,0,0,0-.412-.224,1.986,1.986,0,0,0-.591-.078h-.63ZM71.63,123.019v-6.382h4.048v.952H72.822V119.2h.859a3.689,3.689,0,0,1,1.081.142,2.208,2.208,0,0,1,.762.388,1.577,1.577,0,0,1,.449.583,1.959,1.959,0,0,1-.5,2.205,3.059,3.059,0,0,1-1.895.5Zm1.192-.962h.84a1.469,1.469,0,0,0,.506-.08,1.093,1.093,0,0,0,.364-.218.92.92,0,0,0,.222-.317,1.013,1.013,0,0,0,0-.757.724.724,0,0,0-.225-.293,1.1,1.1,0,0,0-.391-.188,2.156,2.156,0,0,0-.573-.066h-.747Zm37.125-14.011L74.108,90.384l-2.466-1.215V88.034l2.466-1.215L110.264,69h3.769v1.707L77.725,88.6,114.034,106.5v1.551ZM157.916,108V104.81h39.712V108Zm-41.49,0V69.262h3.236V104.81h36.474V108Zm41.49-17.846v-.809h0V69.333h0v-.214h39.712v3.189H161.149V86.964h36.479v3.189Z" fill="#555"/>
  </g>
</svg>
