<svg xmlns="http://www.w3.org/2000/svg" xmlns:xlink="http://www.w3.org/1999/xlink" width="300" height="300" viewBox="0 0 300 300">
  <defs>
    <filter id="Ellipse_27" x="54.5" y="54.5" width="191" height="191" filterUnits="userSpaceOnUse">
      <feOffset input="SourceAlpha"/>
      <feGaussianBlur stdDeviation="7.5" result="blur"/>
      <feFlood flood-color="#1a2230" flood-opacity="0.102"/>
      <feComposite operator="in" in2="blur"/>
      <feComposite in="SourceGraphic"/>
    </filter>
  </defs>
  <g id="Play" transform="translate(-997 -615)">
    <g id="Ellipse_30" data-name="Ellipse 30" transform="translate(1022 641)" fill="none" stroke="#f3ca4c" stroke-width="2" opacity="0.793">
      <circle cx="124.5" cy="124.5" r="124.5" stroke="none"/>
      <circle cx="124.5" cy="124.5" r="123.5" fill="none"/>
    </g>
    <circle id="Ellipse_28" data-name="Ellipse 28" cx="99.5" cy="99.5" r="99.5" transform="translate(1047 665)" fill="#fff"/>
    <g transform="matrix(1, 0, 0, 1, 997, 615)" filter="url(#Ellipse_27)">
      <circle id="Ellipse_27-2" data-name="Ellipse 27" cx="73" cy="73" r="73" transform="translate(77 77)" fill="#fff"/>
    </g>
    <g id="Ellipse_29" data-name="Ellipse 29" transform="translate(997 615)" fill="none" stroke="#fff" stroke-width="2" opacity="0.15">
      <circle cx="150" cy="150" r="150" stroke="none"/>
      <circle cx="150" cy="150" r="149" fill="none"/>
    </g>
    <g id="check-sign" transform="translate(1131 749.1)">
      <path id="Path_219" data-name="Path 219" d="M30.373,12.435,16.336,26.471a5,5,0,0,1-7.071,0l-7.8-7.8A5,5,0,1,1,8.536,11.6L12.8,15.866l10.5-10.5a5,5,0,0,1,7.074,7.07Z" fill="#f3ca4c"/>
    </g>
  </g>
</svg>
